<mxfile host="app.diagrams.net" modified="2023-09-08T16:03:56.356Z" agent="Mozilla/5.0 (Windows NT 10.0; Win64; x64) AppleWebKit/537.36 (KHTML, like Gecko) Chrome/116.0.0.0 Safari/537.36 Edg/116.0.1938.69" version="21.7.2" etag="DqZJiwXRemiz4dJ-P7V5" type="github">
  <diagram name="Page-1" id="QAbmPRW3q_463UC3_X-n">
    <mxGraphModel>
      <root>
        <mxCell id="0" />
        <mxCell id="1" parent="0" />
      </root>
    </mxGraphModel>
  </diagram>
</mxfile>
